# AST/ASF file generated using VICON BodyLanguage
# -----------------------------------------------
:version 1.10
:name VICON
:units
  mass 1.0
  length 0.45
  angle deg
:documentation
   .ast/.asf automatically generated from VICON data using
   VICON BodyBuilder and BodyLanguage model FoxedUp or BRILLIANT.MOD
:root
   order TX TY TZ RX RY RZ
   axis XYZ
   position 0 0 0  
   orientation 0 0 0 
:bonedata
  begin
     id 1 
     name lhipjoint
     direction 0.645897 -0.709066 0.282916 
     length 2.50918 
     axis 0 0 0  XYZ
  end
  begin
     id 2 
     name lfemur
     direction 0.34202 -0.939693 0  
     length 6.85725  
     axis 0 0 20  XYZ
    dof rx ry rz
    limits (-160.0 20.0)
           (-70.0 70.0)
           (-60.0 70.0)
  end
  begin
     id 3 
     name ltibia
     direction 0.34202 -0.939693 0   
     length 8.01778   
     axis 0 0 20   XYZ
    dof rx
    limits (-10.0 170.0)
  end
  begin
     id 4 
     name lfoot
     direction 0.0796011 -0.218702 0.972539   
     length 2.13962   
     axis -90 7.62852e-016 20   XYZ
    dof rx rz
    limits (-45.0 90.0)
           (-70.0 20.0)
  end
  begin
     id 5 
     name ltoes
     direction 1.53548e-011 -4.21881e-011 1   
     length 1.07476   
     axis -90 7.62852e-016 20   XYZ
    dof rx
    limits (-90.0 20.0)
  end
  begin
     id 6 
     name rhipjoint
     direction -0.63101 -0.720537 0.287493   
     length 2.46923  
     axis 0 0 0  XYZ 
  end
  begin
     id 7 
     name rfemur
     direction -0.34202 -0.939693 0   
     length 6.81957   
     axis 0 0 -20   XYZ
    dof rx ry rz
    limits (-160.0 20.0)
           (-70.0 70.0)
           (-70.0 60.0)
  end
  begin
     id 8 
     name rtibia
     direction -0.34202 -0.939693 0   
     length 8.15152   
     axis 0 0 -20   XYZ
    dof rx
    limits (-10.0 170.0)
 end
 begin
     id 9 
     name rfoot
     direction -0.105819 -0.290734 0.950934   
     length 2.14588  
     axis -90 -7.62852e-016 -20   XYZ
    dof rx rz
    limits (-45.0 90.0)
           (-20.0 70.0)
  end
  begin
     id 10 
     name rtoes
     direction -1.53512e-011 -4.22005e-011 1   
     length 1.0703   
     axis -90 -7.62852e-016 -20   XYZ
    dof rx
    limits (-90.0 20.0)
  end
  begin
     id 11 
     name lowerback
     direction 0.0114933 0.999236 0.0373542   
     length 1.91711   
     axis 0 0 0   XYZ
    dof rx ry rz
    limits (-20.0 45.0)
           (-30.0 30.0)
           (-30.0 30.0)
  end
  begin
     id 12 
     name upperback
     direction 0.00911529 0.998099 0.0609554   
     length 1.90888   
     axis 0 0 0   XYZ
    dof rx ry rz
    limits (-20.0 45.0)
           (-30.0 30.0)
           (-30.0 30.0)
  end
  begin
     id 13 
     name thorax
     direction 0.00357322 0.99911 0.0420379   
     length 1.90942   
     axis 0 0 0   XYZ
    dof rx ry rz
    limits (-20.0 45.0)
           (-30.0 30.0)
           (-30.0 30.0)
  end
  begin
     id 14 
     name lowerneck
     direction -0.0589311 0.997882 0.0275448   
     length 1.83956   
     axis 0 0 0   XYZ
    dof rx ry rz
    limits (-20.0 45.0)
           (-30.0 30.0)
           (-30.0 30.0)
  end
  begin
     id 15 
     name upperneck
     direction 0.0362633 0.960055 -0.277453   
     length 1.82031   
     axis 0 0 0   XYZ
    dof rx ry rz
    limits (-20.0 45.0)
           (-30.0 30.0)
           (-30.0 30.0)
  end
  begin
     id 16
     name head
     direction 0.0166719 0.995328 -0.0951042  
     length 1.86084  
     axis 0 0 0   XYZ
    dof rx ry rz
    limits (-20.0 45.0)
           (-30.0 30.0)
           (-30.0 30.0)
  end
  begin
     id 17 
     name lclavicle
     direction 0.90319 0.426238 0.0506919  
     length 3.17828  
     axis 0 0 0   XYZ
    dof ry rz
    limits (-20.0 10.0)
           (0.0 20.0)
  end
  begin
     id 18 
     name lhumerus
     direction 1 -4.48953e-011 6.78797e-028   
     length 5.43592   
     axis 180 -30 -90   XYZ
    dof rx ry rz
    limits (-60.0 90.0)
           (-90.0 90.0)
           (-90.0 90.0)
  end
  begin
     id 19
     name lradius
     direction 1 -4.48969e-011 7.02702e-027   
     length 3.2546   
     axis 180 -30 -90   XYZ
    dof rx
    limits (-10.0 170.0)
  end
  begin
     id 20
     name lwrist
     direction 1 -4.48975e-011 1.29807e-026   
     length 1.6273   
     axis -8.50346e-015 90 90   XYZ
    dof ry
    limits (-180.0 0.0)
 end
  begin
     id 21 
     name lhand
     direction 1 -4.48917e-011 2.59615e-026   
     length 0.498244   
     axis -1.65656e-014 90 90   XYZ
    dof rx rz
    limits (-90.0 90.0)
           (-45.0 45.0)
  end
  begin
     id 22 
     name lfingers
     direction 1 -4.48885e-011 5.1923e-026   
     length 0.401697   
     axis -3.31313e-014 90 90   XYZ
    dof rx
    limits (0.0 90.0)
  end
  begin
     id 23
     name lthumb
     direction 0.707107 -6.34946e-011 0.707107   
     length 0.576759   
     axis -90 45 2.85299e-015   XYZ
    dof rx rz
    limits (-45.0 45.0)
           (-45.0 45.0)
  end
  begin
     id 24 
     name rclavicle
     direction -0.908603 0.391432 0.145676   
     length 3.15477  
     axis 0 0 0   XYZ 
    dof ry rz
    limits (-10.0 20.0)
           (-20.0 0.0)
  end
  begin
     id 25 
     name rhumerus
     direction -1 -4.4898e-011 1.02852e-027  
     length 5.3383   
     axis 180 30 90   XYZ
    dof rx ry rz
    limits (-90.0 60.0)
           (-90.0 90.0)
           (-90.0 90.0)
  end
  begin
     id 26 
     name rradius
     direction -1 -4.48968e-011 7.05567e-027   
     length 3.23148   
     axis 180 30 90   XYZ
    dof rx
    limits (-10.0 170.0)
  end
  begin
     id 27 
     name rwrist
     direction -1 -4.48927e-011 1.29807e-026   
     length 1.61574   
     axis -8.50346e-015 -90 -90   XYZ
    dof ry
    limits (-180.0 0.0)
  end
  begin
     id 28
     name rhand
     direction -1 -4.48905e-011 2.59615e-026   
     length 0.463641   
     axis -1.65656e-014 -90 -90   XYZ
    dof rx rz
    limits (-90.0 90.0)
           (-45.0 45.0)
  end
  begin
     id 29
     name rfingers
     direction -1 -4.49167e-011 5.1923e-026   
     length 0.373799   
     axis -3.31313e-014 -90 -90   XYZ
    dof rx
    limits (0.0 90.0)
  end
  begin
     id 30
     name rthumb
     direction -0.707107 -6.34954e-011 0.707107   
     length 0.536703   
     axis -90 -45 -2.85299e-015   XYZ
    dof rx rz
    limits (-45.0 45.0)
           (-45.0 45.0)
  end
:hierarchy
  begin
    root lhipjoint rhipjoint lowerback
    lhipjoint lfemur
    lfemur ltibia
    ltibia lfoot
    lfoot ltoes
    rhipjoint rfemur
    rfemur rtibia
    rtibia rfoot
    rfoot rtoes
    lowerback upperback
    upperback thorax
    thorax lowerneck lclavicle rclavicle
    lowerneck upperneck
    upperneck head
    lclavicle lhumerus
    lhumerus lradius
    lradius lwrist
    lwrist lhand lthumb
    lhand lfingers
    rclavicle rhumerus
    rhumerus rradius
    rradius rwrist
    rwrist rhand rthumb
    rhand rfingers
  end

#!OML:ASF F:\VICON\USERDATA\INSTALL\rory3\rory3.ASF
:FULLY-SPECIFIED
:DEGREES
120
root 4.1419 17.5795 3.62388 18.9233 -10.1969 -4.10841
lowerback -7.27411 -0.503038 6.58448
upperback -11.6997 -0.735925 2.42945
thorax -8.4036 -0.834425 -1.07842
lowerneck -9.42234 11.8458 9.1755
upperneck 26.0677 13.8375 4.24985
head 10.2633 7.74871 1.64786
rclavicle 1.98785e-016 -1.98785e-014
rhumerus -10.5174 -21.6608 19.6177
rradius 120.181
rwrist -56.244
rhand -3.34093 -44.6965
rfingers 7.12502
rthumb 22.3867 -73.4193
lclavicle 1.98785e-016 -1.98785e-014
lhumerus 35.4141 37.9767 -6.17054
lradius 30.5344
lwrist 34.3273
lhand -26.444 -19.5578
lfingers 7.12502
lthumb 0.116883 10.4219
rfemur -6.27855 10.791 -0.471504
rtibia 11.7501
rfoot 20.6001 -10.7915
rtoes -36.0887
lfemur -23.9878 -2.25881 -22.6762
ltibia 22.3196
lfoot -14.5397 11.726
ltoes 10.4894
121
root 4.14312 17.58 3.61469 18.9122 -10.1893 -4.11996
lowerback -7.31284 -0.531972 6.53847
upperback -11.6073 -0.781911 2.42523
thorax -8.27782 -0.84882 -1.061
lowerneck -9.57157 11.7494 9.12697
upperneck 26.276 13.7303 4.10663
head 10.3716 7.67949 1.61363
rclavicle -2.82274e-014 -3.97569e-015
rhumerus -10.2931 -21.9214 19.2809
rradius 119.925
rwrist -56.2343
rhand -3.48403 -44.8721
rfingers 7.12502
rthumb 22.2494 -73.6114
lclavicle -2.82274e-014 -3.97569e-015
lhumerus 36.1089 38.7226 -5.20826
lradius 30.2746
lwrist 33.1048
lhand -26.1324 -19.8791
lfingers 7.12502
lthumb 0.417852 10.1002
rfemur -6.52428 10.7766 -0.446182
rtibia 12.0952
rfoot 20.5716 -10.7607
rtoes -35.9362
lfemur -24.0127 -2.26464 -22.6571
ltibia 22.3122
lfoot -14.4928 11.7368
ltoes 10.6625
122
root 4.1438 17.5809 3.60059 18.8759 -10.2029 -4.12179
lowerback -7.25924 -0.562883 6.43616
upperback -11.4979 -0.821138 2.43214
thorax -8.18302 -0.854926 -0.999554
lowerneck -9.88572 11.6914 8.94029
upperneck 26.6315 13.623 4.20489
head 10.5352 7.62523 1.69908
rclavicle -2.38542e-014 3.26007e-014
rhumerus -10.181 -22.0465 19.0166
rradius 119.897
rwrist -56.2986
rhand -4.10916 -45.1215
rfingers 7.12502
rthumb 21.6491 -73.9311
lclavicle -2.38542e-014 3.26007e-014
lhumerus 35.7381 38.6261 -5.65622
lradius 30.4053
lwrist 33.1809
lhand -26.1133 -19.7591
lfingers 7.12502
lthumb 0.436309 10.2202
rfemur -6.70554 10.8159 -0.438997
rtibia 12.369
rfoot 20.5712 -10.7422
rtoes -35.5391
lfemur -24.0425 -2.25626 -22.6495
ltibia 22.326
lfoot -14.4306 11.7393
ltoes 10.4863
123
root 4.14436 17.5824 3.58486 18.8248 -10.142 -4.18732
lowerback -7.07636 -0.595623 6.39818
upperback -11.4782 -0.846023 2.47819
thorax -8.26493 -0.862867 -0.926605
lowerneck -10.1116 11.6123 8.68919
upperneck 27.1209 13.4866 4.39194
head 10.7203 7.56428 1.82102
rclavicle 4.48259e-014 -1.70955e-014
rhumerus -10.1438 -21.8485 18.8907
rradius 120.051
rwrist -56.3373
rhand -4.60542 -45.3021
rfingers 7.12502
rthumb 21.1725 -74.1659
lclavicle 4.48259e-014 -1.70955e-014
lhumerus 34.8477 37.954 -6.75514
lradius 30.7367
lwrist 34.0779
lhand -26.4642 -19.2854
lfingers 7.12502
lthumb 0.0974538 10.6943
rfemur -6.7626 10.8937 -0.327182
rtibia 12.5474
rfoot 20.4162 -10.8414
rtoes -35.4801
lfemur -24.0671 -2.23809 -22.5596
ltibia 22.3637
lfoot -14.3841 11.6718
ltoes 10.3037
124
root 4.14763 17.5826 3.5722 18.7575 -9.96622 -4.25683
lowerback -6.84065 -0.651713 6.43029
upperback -11.4964 -0.896063 2.5312
thorax -8.42496 -0.891026 -0.882134
lowerneck -10.2329 11.4511 8.61165
upperneck 27.4872 13.2748 4.33473
head 10.8739 7.4559 1.81183
rclavicle -1.80894e-014 2.66371e-014
rhumerus -9.99993 -21.717 18.7384
rradius 120.018
rwrist -56.4014
rhand -4.68893 -45.4999
rfingers 7.12502
rthumb 21.0923 -74.3727
lclavicle -1.80894e-014 2.66371e-014
lhumerus 34.6655 37.7951 -6.89902
lradius 30.749
lwrist 34.0723
lhand -27.1904 -19.4437
lfingers 7.12502
lthumb -0.604013 10.5352
rfemur -6.67014 10.786 -0.162245
rtibia 12.6309
rfoot 20.2552 -10.8485
rtoes -35.7777
lfemur -24.0692 -2.29267 -22.4539
ltibia 22.414
lfoot -14.3312 11.5886
ltoes 10.2805
125
root 4.15038 17.5816 3.56521 18.6761 -9.82198 -4.26701
lowerback -6.64963 -0.698106 6.38608
upperback -11.4808 -0.938903 2.55912
thorax -8.51783 -0.908297 -0.824017
lowerneck -10.3876 11.3043 8.67866
upperneck 27.7175 13.0893 4.13354
head 11.0081 7.35459 1.73118
rclavicle 1.68967e-014 -1.19271e-014
rhumerus -9.78253 -21.8419 18.5181
rradius 119.76
rwrist -56.3945
rhand -4.27486 -45.6458
rfingers 7.12502
rthumb 21.49 -74.4738
lclavicle 1.68967e-014 -1.19271e-014
lhumerus 34.4693 37.5026 -7.10527
lradius 30.7319
lwrist 34.2604
lhand -27.5956 -19.8014
lfingers 7.12502
lthumb -0.995288 10.176
rfemur -6.52374 10.6107 -0.0715568
rtibia 12.6151
rfoot 20.2549 -10.8147
rtoes -35.9991
lfemur -24.0578 -2.3433 -22.4271
ltibia 22.4898
lfoot -14.2833 11.5391
ltoes 10.0132
126
root 4.15195 17.5813 3.56532 18.5815 -9.74735 -4.27412
lowerback -6.65557 -0.697941 6.3722
upperback -11.3666 -0.945104 2.5313
thorax -8.38521 -0.906047 -0.849937
lowerneck -10.6709 11.2052 8.65308
upperneck 27.9989 12.949 4.04149
head 11.1715 7.27698 1.71802
rclavicle 3.11098e-014 3.57812e-015
rhumerus -9.71038 -22.0163 18.3119
rradius 119.562
rwrist -56.2467
rhand -3.84475 -45.6862
rfingers 7.12502
rthumb 21.903 -74.4664
lclavicle 3.11098e-014 3.57812e-015
lhumerus 33.914 36.9345 -7.87288
lradius 30.9327
lwrist 35.3226
lhand -27.2338 -19.8906
lfingers 7.12502
lthumb -0.645914 10.0882
rfemur -6.36082 10.5213 -0.00873701
rtibia 12.5457
rfoot 20.3656 -10.8181
rtoes -35.861
lfemur -24.0075 -2.28971 -22.4381
ltibia 22.5836
lfoot -14.3423 11.4646
ltoes 9.80486
